<svg xmlns="http://www.w3.org/2000/svg" viewBox="0 0 100 100" width="100" height="100">
  <defs>
    <linearGradient id="tvGradient" x1="0%" y1="0%" x2="100%" y2="100%">
      <stop offset="0%" style="stop-color:#00A3FF;stop-opacity:1" />
      <stop offset="100%" style="stop-color:#FF6B9D;stop-opacity:1" />
    </linearGradient>
  </defs>

  <!-- TV body -->
  <rect x="20" y="25" width="60" height="45" rx="8" fill="url(#tvGradient)"/>
  <rect x="25" y="30" width="50" height="35" rx="4" fill="#333333"/>

  <!-- TV screen -->
  <rect x="28" y="33" width="44" height="29" rx="2" fill="#000000"/>

  <!-- Video frames on screen -->
  <rect x="30" y="35" width="8" height="6" fill="#FF6B9D" rx="1"/>
  <rect x="40" y="35" width="8" height="6" fill="#00A3FF" rx="1"/>
  <rect x="50" y="35" width="8" height="6" fill="#FFB347" rx="1"/>
  <rect x="60" y="35" width="8" height="6" fill="#FF6B9D" rx="1"/>

  <rect x="30" y="45" width="8" height="6" fill="#00A3FF" rx="1"/>
  <rect x="40" y="45" width="8" height="6" fill="#FFB347" rx="1"/>
  <rect x="50" y="45" width="8" height="6" fill="#FF6B9D" rx="1"/>
  <rect x="60" y="45" width="8" height="6" fill="#00A3FF" rx="1"/>

  <rect x="30" y="55" width="8" height="6" fill="#FFB347" rx="1"/>
  <rect x="40" y="55" width="8" height="6" fill="#FF6B9D" rx="1"/>
  <rect x="50" y="55" width="8" height="6" fill="#00A3FF" rx="1"/>
  <rect x="60" y="55" width="8" height="6" fill="#FFB347" rx="1"/>

  <!-- TV antenna -->
  <line x1="45" y1="25" x2="40" y2="15" stroke="url(#tvGradient)" stroke-width="2" stroke-linecap="round"/>
  <line x1="55" y1="25" x2="60" y2="15" stroke="url(#tvGradient)" stroke-width="2" stroke-linecap="round"/>

  <!-- TV legs -->
  <rect x="30" y="70" width="8" height="6" rx="2" fill="url(#tvGradient)"/>
  <rect x="62" y="70" width="8" height="6" rx="2" fill="url(#tvGradient)"/>

  <!-- Power button -->
  <circle cx="75" cy="40" r="3" fill="white"/>
  <circle cx="75" cy="40" r="1.5" fill="#FF6B9D"/>

  <!-- Live indicator -->
  <circle cx="75" cy="50" r="2" fill="#FF4444">
    <animate attributeName="opacity" values="1;0.3;1" dur="1.5s" repeatCount="indefinite"/>
  </circle>
</svg>
